<?xml version="1.0" encoding="UTF-8" standalone="no"?>
<!-- Created with Inkscape (http://www.inkscape.org/) -->

<svg
   xmlns:dc="http://purl.org/dc/elements/1.1/"
   xmlns:cc="http://creativecommons.org/ns#"
   xmlns:rdf="http://www.w3.org/1999/02/22-rdf-syntax-ns#"
   xmlns:svg="http://www.w3.org/2000/svg"
   xmlns="http://www.w3.org/2000/svg"
   xmlns:sodipodi="http://sodipodi.sourceforge.net/DTD/sodipodi-0.dtd"
   xmlns:inkscape="http://www.inkscape.org/namespaces/inkscape"
   version="1.1"
   id="svg23374"
   xml:space="preserve"
   width="800"
   height="800"
   viewBox="0 0 800 800"
   sodipodi:docname="cardboard-box-clipart-publicdomainvectors.org.svg"
   inkscape:version="0.92.4 (5da689c313, 2019-01-14)"><metadata
     id="metadata23380"><rdf:RDF><cc:Work
         rdf:about=""><dc:format>image/svg+xml</dc:format><dc:type
           rdf:resource="http://purl.org/dc/dcmitype/StillImage" /><dc:title></dc:title></cc:Work></rdf:RDF></metadata><defs
     id="defs23378"><clipPath
       clipPathUnits="userSpaceOnUse"
       id="clipPath23390"><path
         d="M 0,600 H 600 V 0 H 0 Z"
         id="path23388"
         inkscape:connector-curvature="0" /></clipPath></defs><sodipodi:namedview
     pagecolor="#ffffff"
     bordercolor="#666666"
     borderopacity="1"
     objecttolerance="10"
     gridtolerance="10"
     guidetolerance="10"
     inkscape:pageopacity="0"
     inkscape:pageshadow="2"
     inkscape:window-width="1920"
     inkscape:window-height="1018"
     id="namedview23376"
     showgrid="false"
     inkscape:zoom="1.0013867"
     inkscape:cx="400"
     inkscape:cy="400"
     inkscape:window-x="-8"
     inkscape:window-y="-8"
     inkscape:window-maximized="1"
     inkscape:current-layer="g23382" /><g
     id="g23382"
     inkscape:groupmode="layer"
     inkscape:label="cardboard-box-clipart-publicdomainvectors.org"
     transform="matrix(1.3333333,0,0,-1.3333333,0,800)"><g
       id="g23384"><g
         id="g23386"
         clip-path="url(#clipPath23390)"><path
           d="M 569.047,203.613 370.012,304.27 107.398,203.613 229.413,102.957 h 77.021 z"
           style="fill:#ede5dc;fill-opacity:1;fill-rule:evenodd;stroke:none"
           id="path23392"
           inkscape:connector-curvature="0" /><path
           d="M 492.025,203.613 292.989,304.27 30.377,203.613 229.413,102.957 Z"
           style="fill:#996633;fill-opacity:1;fill-rule:evenodd;stroke:none"
           id="path23394"
           inkscape:connector-curvature="0" /><path
           d="m 492.025,203.613 v 51.311 l -95.062,47.34 c -1.231,-5.942 -4.688,-10.221 -8.758,-10.221 -5.105,0 -9.244,6.725 -9.244,15.018 0,1.388 0.117,2.73 0.332,4.002 l -86.255,42.955 -0.049,-49.748 z"
           style="fill:#ad7a47;fill-opacity:1;fill-rule:evenodd;stroke:none"
           id="path23396"
           inkscape:connector-curvature="0" /><path
           d="m 229.413,102.957 v 51.309 L 30.426,253.361 30.377,203.613 Z"
           style="fill:#e0b58b;fill-opacity:1;fill-rule:evenodd;stroke:none"
           id="path23398"
           inkscape:connector-curvature="0" /><path
           d="m 287.485,306.284 89.363,-42.192 109.627,-56.903 -111.746,53.245 z"
           style="fill:#8a5d30;fill-opacity:1;fill-rule:evenodd;stroke:none"
           id="path23400"
           inkscape:connector-curvature="0" /><path
           d="m 30.426,253.361 135.527,294.75 88.884,-44.263 c 3.389,7.217 10.562,11.061 16.493,8.534 5.936,-2.526 6.69,-14.535 5.017,-18.459 -1.67,-3.924 -0.189,-0.432 -0.288,-0.644 l 88.882,-44.263 -135.528,-294.75 z"
           style="fill:#f0c9a3;fill-opacity:1;fill-rule:evenodd;stroke:none"
           id="path23402"
           inkscape:connector-curvature="0" /><path
           d="m 277.809,144.047 -48.396,10.219 135.53,294.75 27.008,-51.835 z"
           style="fill:#d4a373;fill-opacity:1;fill-rule:evenodd;stroke:none"
           id="path23404"
           inkscape:connector-curvature="0" /><path
           d="m 229.413,102.957 v 51.309 l 262.612,100.658 v -51.311 z"
           style="fill:#bd8a57;fill-opacity:1;fill-rule:evenodd;stroke:none"
           id="path23406"
           inkscape:connector-curvature="0" /><path
           d="M 30.426,253.361 119.787,211.17 229.413,154.266 117.67,207.51 Z"
           style="fill:#fae3cd;fill-opacity:1;fill-rule:evenodd;stroke:none"
           id="path23408"
           inkscape:connector-curvature="0" /><path
           d="m 229.413,154.266 57.343,129.711 76.396,161.149 -72.329,-163.341 z"
           style="fill:#fae3cd;fill-opacity:1;fill-rule:evenodd;stroke:none"
           id="path23410"
           inkscape:connector-curvature="0" /><path
           d="m 229.454,102.957 1.536,26.375 -1.536,24.934 -1.75,-25.1 z"
           style="fill:#f0c9a3;fill-opacity:1;fill-rule:evenodd;stroke:none"
           id="path23412"
           inkscape:connector-curvature="0" /></g></g></g></svg>